<svg fill="none" viewBox="0 0 800 270" width="100%" xmlns="http://www.w3.org/2000/svg" role="img" aria-label="scoegrams: Hot interfaces. Creative apps. User-friendly systems. Design flows into UI, UI into systems. Contact scoegrams@gmail.com.">
  <foreignObject height="100%" width="100%">
    <div xmlns="http://www.w3.org/1999/xhtml">
      <style>
        .canvas {
          position: relative;
          box-sizing: border-box;
          width: 100%;
          height: 270px;
          padding: 26px 32px;
          overflow: hidden;
          border: 1px solid rgba(230,225,218,0.14);
          border-radius: 12px;
          background: #1C1B1A;
          color: #E6E1DA;
          font-family: 'Newsreader', Georgia, 'Times New Roman', serif;
        }
        .top {
          display: flex;
          justify-content: space-between;
          align-items: baseline;
          gap: 16px;
          padding-bottom: 12px;
          border-bottom: 1px solid rgba(230,225,218,0.14);
          font-family: 'IBM Plex Mono', ui-monospace, SFMono-Regular, Menlo, monospace;
          font-size: 11px;
          letter-spacing: 0.14em;
          color: #A0988E;
        }
        .top b { font-weight: 500; color: #E6E1DA; letter-spacing: 0.14em; }
        .mark { color: #E6E1DA; font-weight: 500; letter-spacing: 0.16em; }
        .mark-soft {
          font-size: 9px;
          font-weight: 400;
          letter-spacing: 0.08em;
          color: #A0988E;
          text-transform: none;
        }
        .top a { color: inherit; text-decoration: none; border: 0; }
        .chat { margin-top: 30px; width: 430px; }
        .you {
          display: inline-block;
          padding: 8px 14px;
          border-radius: 14px 14px 14px 4px;
          background: #272523;
          font-family: 'IBM Plex Mono', ui-monospace, SFMono-Regular, Menlo, monospace;
          font-size: 13px;
          color: #E6E1DA;
        }
        .say {
          margin: 22px 0 0;
          font-size: 27px;
          line-height: 1.25;
          letter-spacing: -0.015em;
        }
        .say em { position: relative; font-style: normal; color: #C87D55; }
        .smoke {
          position: absolute;
          left: calc(100% - 6px);
          bottom: 45%;
          width: 60px;
          height: 46px;
          overflow: visible;
          pointer-events: none;
          filter: blur(0.35px);
        }
        .wisp {
          fill: none;
          stroke: #A0988E;
          stroke-width: 1.6;
          stroke-linecap: round;
          stroke-dasharray: 38 100;
          opacity: 0;
          animation: smoke 3.6s ease-out infinite;
        }
        .wisp.w2 { animation-delay: -1.2s; animation-duration: 4.2s; }
        .wisp.w3 { animation-delay: -2.5s; animation-duration: 3.9s; }
        .caret {
          display: inline-block;
          width: 10px;
          height: 22px;
          margin-left: 6px;
          vertical-align: -2px;
          background: #C87D55;
          animation: blink 1.1s steps(1) infinite;
        }
        .graph {
          position: absolute;
          right: 24px;
          bottom: 18px;
          width: 300px;
          height: 200px;
          overflow: visible;
        }
        .edge { stroke: rgba(230,225,218,0.18); stroke-width: 1.5; stroke-linecap: round; stroke-linejoin: round; }
        .particle { fill: #C87D55; }
        .orbiter {
          fill: #E6E1DA;
          opacity: 0.7;
          transform-box: view-box;
          transform-origin: 42px 92px;
          animation: grow 7s linear infinite;
        }
        .orbiter.o2 { animation-duration: 11s; animation-direction: reverse; }
        .orbiter.o3 { animation-duration: 16s; }
        .node, .hub {
          transform-box: fill-box;
          transform-origin: center;
          transition: transform 0.2s ease-out, fill 0.2s ease-out, stroke 0.2s ease-out;
          cursor: pointer;
        }
        .design { stroke: #8A9A86; cursor: pointer; transition: stroke 0.3s ease-out; }
        .design .core { fill: #8A9A86; transition: fill 0.2s ease-out; }
        .ring {
          fill: none;
          stroke: inherit;
          stroke-width: 1;
          stroke-linejoin: round;
          transform-box: view-box;
          transform-origin: 42px 92px;
          animation: grow 22s linear infinite;
        }
        .ring:nth-of-type(2) { animation-duration: 31s; animation-direction: reverse; }
        .ring:nth-of-type(3) { animation-duration: 40s; }
        .ring:nth-of-type(4) { animation-duration: 55s; animation-direction: reverse; }
        .ring:nth-of-type(5) { animation-duration: 70s; }
        .design:hover { stroke: #C87D55; }
        .design:hover .core { fill: #C87D55; }
        .node { fill: #8A9A86; }
        .node:hover { fill: #C87D55; transform: scale(1.3); }
        .hub { fill: #C87D55; }
        .sat { fill: #8A9A86; }
        .spoke { stroke: rgba(230,225,218,0.18); stroke-width: 1.5; stroke-linecap: round; }
        .link { fill: none; stroke: #8A9A86; stroke-width: 1; stroke-linecap: round; stroke-opacity: 0.45; }
        .still { display: none; }
        .is-pulsing .node, .is-pulsing .sat { animation: pulse 0.8s ease-in-out 3; }
        .is-pulsing .design { animation: pulse-stroke 0.8s ease-in-out 3; }
        .graph text {
          font-family: 'IBM Plex Mono', ui-monospace, SFMono-Regular, Menlo, monospace;
          font-size: 10px;
          letter-spacing: 0.14em;
          text-transform: uppercase;
          fill: #A0988E;
        }
        @keyframes smoke {
          0% { stroke-dashoffset: 38; opacity: 0; transform: translate(0, 6px); }
          25% { opacity: 0.75; }
          60% { transform: translate(2px, -2px); }
          100% { stroke-dashoffset: -100; opacity: 0; transform: translate(-1px, -10px); }
        }
        @keyframes blink { 0%, 55% { opacity: 1; } 56%, 100% { opacity: 0; } }
        @keyframes pulse { 50% { fill: #C87D55; } }
        @keyframes grow { to { transform: rotate(360deg); } }
        @keyframes pulse-stroke { 50% { stroke: #C87D55; } }
        @media (prefers-reduced-motion: reduce) {
          .wisp { animation: none; opacity: 0.35; stroke-dasharray: none; }
          .caret, .ring, .orbiter, .is-pulsing .node, .is-pulsing .sat, .is-pulsing .design { animation: none; }
          .live { display: none; }
          .still { display: inline; }
        }
      </style>

      <div class="canvas">
        <div class="top">
          <span><span class="mark"><span class="mark-soft">ro</span>SCOE<span class="mark-soft">pro</span>GRAMS</span> / <b>design</b></span>
          <a href="mailto:scoegrams@gmail.com">scoegrams@gmail.com</a>
        </div>

        <div class="chat">
          <span class="you">what do you build?</span>
          <p class="say"><em>Hot interfaces.<svg class="smoke" viewBox="0 0 60 46" xmlns="http://www.w3.org/2000/svg" aria-hidden="true">
            <path class="wisp" pathLength="100" d="M4 46 C0 38, 10 32, 7 24 S1 12, 11 3" />
            <path class="wisp w2" pathLength="100" d="M4 46 C9 38, 1 31, 9 23 S20 15, 16 2" />
            <path class="wisp w3" pathLength="100" d="M4 46 C3 40, 13 35, 16 27 S27 18, 24 6" />
          </svg></em> Creative apps.<br/>User-friendly systems.<span class="caret"></span></p>
        </div>

        <svg class="graph" viewBox="0 0 300 200" xmlns="http://www.w3.org/2000/svg">
          <path class="edge" d="M70 92 H121 M176 92 H229" />

          <g class="design">
            <path class="ring" d="M48.24 92.00L48.37 92.42L48.46 92.85L48.49 93.29L48.48 93.74L48.41 94.18L48.28 94.60L48.09 95.01L47.86 95.38L47.57 95.72L47.25 96.03L46.89 96.29L46.51 96.51L46.11 96.68L45.70 96.82L45.29 96.92L44.88 96.99L44.49 97.04L44.10 97.07L43.73 97.09L43.37 97.11L43.02 97.13L42.68 97.16L42.34 97.19L42.00 97.24L41.65 97.29L41.30 97.34L40.93 97.39L40.54 97.44L40.14 97.47L39.73 97.47L39.31 97.46L38.88 97.40L38.45 97.31L38.04 97.17L37.63 96.98L37.26 96.74L36.91 96.46L36.61 96.14L36.35 95.78L36.14 95.38L35.99 94.96L35.89 94.53L35.84 94.09L35.84 93.65L35.89 93.22L35.98 92.79L36.10 92.39L36.24 92.00L36.39 91.63L36.56 91.28L36.72 90.95L36.89 90.63L37.04 90.32L37.19 90.01L37.33 89.70L37.47 89.38L37.60 89.06L37.73 88.72L37.87 88.38L38.02 88.02L38.19 87.66L38.39 87.30L38.62 86.94L38.88 86.60L39.18 86.28L39.51 85.98L39.87 85.73L40.26 85.52L40.68 85.36L41.11 85.26L41.56 85.22L42.00 85.24L42.44 85.31L42.86 85.44L43.27 85.62L43.65 85.84L44.00 86.10L44.32 86.39L44.62 86.69L44.88 87.01L45.12 87.33L45.34 87.65L45.55 87.96L45.74 88.26L45.93 88.55L46.13 88.83L46.33 89.11L46.53 89.38L46.75 89.66L46.97 89.94L47.20 90.23L47.44 90.54L47.66 90.87L47.88 91.23L48.07 91.60Z" opacity="1" />
            <path class="ring" d="M54.43 92.00L54.37 92.81L54.11 93.59L53.70 94.33L53.21 95.00L52.68 95.63L52.16 96.21L51.68 96.77L51.23 97.33L50.80 97.88L50.37 98.42L49.91 98.94L49.42 99.42L48.87 99.84L48.29 100.19L47.68 100.49L47.06 100.77L46.46 101.05L45.88 101.36L45.31 101.75L44.73 102.21L44.13 102.72L43.48 103.27L42.77 103.78L42.00 104.19L41.18 104.44L40.36 104.48L39.56 104.29L38.81 103.89L38.16 103.31L37.61 102.61L37.14 101.86L36.73 101.12L36.35 100.45L35.96 99.87L35.53 99.38L35.04 98.96L34.50 98.58L33.93 98.19L33.37 97.77L32.84 97.29L32.38 96.75L31.98 96.15L31.66 95.51L31.40 94.84L31.16 94.16L30.94 93.46L30.71 92.74L30.47 92.00L30.26 91.23L30.12 90.44L30.07 89.63L30.18 88.83L30.46 88.08L30.91 87.41L31.54 86.84L32.27 86.38L33.07 86.03L33.87 85.76L34.60 85.51L35.25 85.25L35.78 84.91L36.23 84.48L36.62 83.94L36.98 83.31L37.38 82.63L37.84 81.96L38.38 81.35L39.01 80.84L39.71 80.48L40.46 80.27L41.23 80.19L42.00 80.23L42.76 80.34L43.52 80.49L44.26 80.66L44.99 80.86L45.71 81.08L46.41 81.36L47.07 81.72L47.67 82.17L48.20 82.73L48.62 83.37L48.95 84.07L49.21 84.79L49.42 85.49L49.64 86.13L49.92 86.71L50.30 87.21L50.79 87.67L51.39 88.11L52.06 88.58L52.76 89.12L53.41 89.73L53.94 90.43L54.29 91.19Z" opacity="0.85" />
            <path class="ring" d="M59.22 92.00L59.14 93.12L58.89 94.22L58.46 95.27L57.88 96.25L57.17 97.15L56.38 97.95L55.55 98.68L54.73 99.35L53.96 99.99L53.26 100.64L52.62 101.32L52.05 102.05L51.50 102.83L50.96 103.67L50.38 104.53L49.73 105.39L49.00 106.20L48.18 106.92L47.27 107.52L46.28 107.99L45.25 108.32L44.17 108.52L43.09 108.61L42.00 108.62L40.91 108.57L39.83 108.49L38.74 108.38L37.65 108.23L36.56 108.04L35.47 107.77L34.41 107.40L33.39 106.91L32.46 106.28L31.63 105.51L30.93 104.62L30.38 103.62L29.96 102.56L29.65 101.47L29.44 100.39L29.27 99.35L29.10 98.36L28.89 97.43L28.62 96.54L28.28 95.68L27.87 94.81L27.41 93.92L26.96 92.99L26.54 92.00L26.21 90.96L25.99 89.89L25.93 88.80L26.01 87.72L26.25 86.65L26.61 85.62L27.07 84.64L27.61 83.69L28.19 82.77L28.80 81.88L29.45 80.99L30.12 80.12L30.83 79.27L31.61 78.46L32.46 77.72L33.39 77.09L34.40 76.59L35.48 76.26L36.60 76.11L37.75 76.12L38.87 76.29L39.97 76.57L41.01 76.92L42.00 77.30L42.94 77.64L43.85 77.93L44.76 78.14L45.68 78.28L46.63 78.36L47.63 78.41L48.67 78.48L49.73 78.61L50.79 78.84L51.83 79.19L52.81 79.68L53.70 80.30L54.51 81.03L55.22 81.86L55.84 82.75L56.39 83.69L56.90 84.65L57.37 85.64L57.81 86.63L58.23 87.65L58.61 88.70L58.92 89.77L59.13 90.88Z" opacity="0.7" />
            <path class="ring" d="M63.89 92.00L63.99 93.44L63.81 94.87L63.40 96.26L62.86 97.59L62.26 98.88L61.65 100.14L61.03 101.38L60.35 102.59L59.57 103.74L58.64 104.77L57.58 105.66L56.41 106.41L55.21 107.06L54.05 107.70L52.96 108.40L51.95 109.23L50.98 110.21L49.99 111.29L48.91 112.35L47.70 113.26L46.36 113.91L44.92 114.21L43.45 114.17L42.00 113.86L40.60 113.37L39.26 112.83L37.96 112.32L36.68 111.86L35.40 111.43L34.14 110.97L32.91 110.43L31.75 109.76L30.67 108.96L29.66 108.08L28.69 107.18L27.70 106.30L26.63 105.48L25.47 104.68L24.26 103.86L23.07 102.93L22.02 101.85L21.23 100.60L20.77 99.21L20.66 97.72L20.83 96.21L21.18 94.74L21.56 93.34L21.89 92.00L22.08 90.69L22.17 89.39L22.21 88.06L22.29 86.72L22.49 85.38L22.85 84.07L23.36 82.81L23.98 81.59L24.64 80.40L25.32 79.20L26.00 77.97L26.71 76.71L27.52 75.49L28.48 74.38L29.62 73.48L30.95 72.86L32.41 72.55L33.92 72.48L35.41 72.58L36.83 72.69L38.16 72.71L39.44 72.57L40.71 72.26L42.00 71.86L43.35 71.46L44.74 71.19L46.15 71.12L47.55 71.29L48.91 71.66L50.21 72.17L51.49 72.76L52.75 73.38L54.00 74.04L55.23 74.76L56.38 75.60L57.40 76.60L58.21 77.79L58.79 79.11L59.18 80.52L59.44 81.93L59.69 83.28L60.03 84.53L60.54 85.71L61.23 86.85L62.02 88.02L62.82 89.26L63.47 90.59Z" opacity="0.6" />
            <path class="ring" d="M67.87 92.00L68.86 93.76L68.36 95.47L66.81 96.94L65.61 98.33L65.54 99.99L65.92 101.91L65.45 103.57L63.73 104.54L61.65 105.13L60.39 106.11L60.09 107.87L59.82 109.82L58.69 111.03L56.82 111.31L55.07 111.56L53.99 112.77L53.26 114.83L52.17 116.54L50.46 116.92L48.52 116.34L46.80 116.12L45.30 117.03L43.73 118.35L42.00 118.67L40.33 117.52L38.85 115.90L37.39 115.19L35.67 115.62L33.84 116.04L32.35 115.31L31.37 113.56L30.44 112.02L28.92 111.58L26.79 111.82L24.84 111.56L23.79 110.21L23.40 108.31L22.67 106.83L21.00 106.03L18.98 105.29L17.83 103.92L18.04 101.92L18.72 99.90L18.58 98.27L17.41 96.89L16.34 95.38L16.54 93.67L17.87 92.00L18.96 90.49L18.79 88.94L17.77 87.18L17.32 85.39L18.19 83.92L19.73 82.77L20.61 81.45L20.43 79.54L20.07 77.35L20.72 75.67L22.50 74.90L24.47 74.47L25.72 73.44L26.38 71.64L27.29 69.99L28.99 69.47L31.15 69.99L33.03 70.35L34.39 69.58L35.58 68.04L37.04 67.09L38.77 67.46L40.46 68.46L42.00 68.67L43.60 67.63L45.38 66.33L47.14 66.15L48.61 67.32L49.91 68.69L51.48 69.11L53.48 68.72L55.44 68.72L56.70 70.00L57.23 72.15L57.81 73.97L59.14 74.86L60.99 75.34L62.34 76.39L62.57 78.25L62.28 80.29L62.68 81.80L64.24 82.79L66.07 83.83L66.88 85.33L66.45 87.14L65.91 88.85L66.43 90.40Z" opacity="0.5" />
            <circle class="core" cx="42" cy="92" r="2.4" />
          </g>
          <circle class="orbiter o1" cx="50.5" cy="92" r="1.3" />
          <circle class="orbiter o2" cx="35.25" cy="103.69" r="1.3" />
          <circle class="orbiter o3" cx="32.75" cy="75.98" r="1.3" />

          <g class="still">
            <g class="ui">
            
            <path class="edge" d="M126 92 L148 72 L170 92 L148 112 Z" />
            <circle class="node" cx="126" cy="92" r="5" />
            <rect class="node" x="143" y="67" width="10" height="10" rx="2" />
            <path class="node" d="M170 85.5 L176.5 92 L170 98.5 L163.5 92 Z" />
            <path class="node" d="M148 105 L154.5 116.5 H141.5 Z" />
          </g>
            <path class="link" d="M253.00 56.29 Q265.20 64.66 267.19 79.32" />
            <path class="link" d="M267.19 79.32 Q259.13 92.81 262.94 108.06" />
            <path class="link" d="M260.65 121.49 Q255.88 113.77 262.94 108.06" />
            <path class="link" d="M262.94 108.06 Q274.11 111.56 282.50 103.39" />
            <line class="spoke" x1="240" y1="92" x2="253.00" y2="56.29" />
            <circle class="sat" cx="253.00" cy="56.29" r="5" />
            <line class="spoke" x1="240" y1="92" x2="267.19" y2="79.32" />
            <circle class="sat" cx="267.19" cy="79.32" r="6" />
            <line class="spoke" x1="240" y1="92" x2="260.65" y2="121.49" />
            <circle class="sat" cx="260.65" cy="121.49" r="4.5" />
            <line class="spoke" x1="240" y1="92" x2="262.94" y2="108.06" />
            <circle class="sat" cx="262.94" cy="108.06" r="5.5" />
            <line class="spoke" x1="240" y1="92" x2="282.50" y2="103.39" />
            <circle class="sat" cx="282.50" cy="103.39" r="4" />
            <circle class="hub" cx="240" cy="92" r="11" />
          </g>

          <g class="live">
            <g class="ui">
            <animateTransform attributeName="transform" type="rotate" values="0 148 92;0 148 92;180 148 92;180 148 92;0 148 92;0 148 92;180 148 92;180 148 92;0 148 92;0 148 92;180 148 92;180 148 92;0 148 92;0 148 92;180 148 92;180 148 92;0 148 92;0 148 92" keyTimes="0.0000;0.0417;0.0750;0.1667;0.2000;0.2917;0.3250;0.4167;0.4500;0.5417;0.5750;0.6667;0.7000;0.7917;0.8250;0.9167;0.9500;1.0000" calcMode="spline" keySplines="0.65 0 0.35 1;0.65 0 0.35 1;0.65 0 0.35 1;0.65 0 0.35 1;0.65 0 0.35 1;0.65 0 0.35 1;0.65 0 0.35 1;0.65 0 0.35 1;0.65 0 0.35 1;0.65 0 0.35 1;0.65 0 0.35 1;0.65 0 0.35 1;0.65 0 0.35 1;0.65 0 0.35 1;0.65 0 0.35 1;0.65 0 0.35 1;0.65 0 0.35 1" dur="24s" begin="0s" repeatCount="indefinite" />
            <path class="edge" d="M126 92 L148 72 L170 92 L148 112 Z" />
            <circle class="node" cx="126" cy="92" r="5" />
            <rect class="node" x="143" y="67" width="10" height="10" rx="2" />
            <path class="node" d="M170 85.5 L176.5 92 L170 98.5 L163.5 92 Z" />
            <path class="node" d="M148 105 L154.5 116.5 H141.5 Z" />
          </g>
            <path class="link" d="M252.98 131.94 Q258.99 94.12 253.00 56.29" opacity="0">
            <animate attributeName="opacity" values="0;0;1;1;0;0" keyTimes="0.0000;0.1208;0.1417;0.4250;0.4417;1.0000" calcMode="spline" keySplines="0.65 0 0.35 1;0.65 0 0.35 1;0.65 0 0.35 1;0.65 0 0.35 1;0.65 0 0.35 1" dur="24s" begin="-24s" repeatCount="indefinite" />
          </path>
          <path class="link" d="M262.94 108.06 Q263.86 81.04 253.00 56.29" opacity="0">
            <animate attributeName="opacity" values="0;0;1;1;0;0" keyTimes="0.0000;0.1208;0.1417;0.1750;0.1917;1.0000" calcMode="spline" keySplines="0.65 0 0.35 1;0.65 0 0.35 1;0.65 0 0.35 1;0.65 0 0.35 1;0.65 0 0.35 1" dur="24s" begin="-24s" repeatCount="indefinite" />
          </path>
          <path class="link" d="M253.00 56.29 Q262.66 83.03 282.50 103.39" opacity="0">
            <animate attributeName="opacity" values="0;0;1;1;0;0" keyTimes="0.0000;0.1208;0.1417;0.3000;0.3167;1.0000" calcMode="spline" keySplines="0.65 0 0.35 1;0.65 0 0.35 1;0.65 0 0.35 1;0.65 0 0.35 1;0.65 0 0.35 1" dur="24s" begin="-21s" repeatCount="indefinite" />
          </path>
          <path class="link" d="M252.98 131.94 Q263.57 113.35 282.50 103.39" opacity="0">
            <animate attributeName="opacity" values="0;0;1;1;0;0" keyTimes="0.0000;0.1208;0.1417;0.3625;0.3792;1.0000" calcMode="spline" keySplines="0.65 0 0.35 1;0.65 0 0.35 1;0.65 0 0.35 1;0.65 0 0.35 1;0.65 0 0.35 1" dur="24s" begin="-21s" repeatCount="indefinite" />
          </path>
          <path class="link" d="M282.50 103.39 Q279.91 88.13 267.19 79.32" opacity="0">
            <animate attributeName="opacity" values="0;0;1;1;0;0" keyTimes="0.0000;0.1208;0.1417;0.3833;0.4000;1.0000" calcMode="spline" keySplines="0.65 0 0.35 1;0.65 0 0.35 1;0.65 0 0.35 1;0.65 0 0.35 1;0.65 0 0.35 1" dur="24s" begin="-18s" repeatCount="indefinite" />
          </path>
          <path class="link" d="M253.00 56.29 Q265.20 64.66 267.19 79.32" opacity="0">
            <animate attributeName="opacity" values="0;0;1;1;0;0" keyTimes="0.0000;0.1208;0.1417;0.1750;0.1917;1.0000" calcMode="spline" keySplines="0.65 0 0.35 1;0.65 0 0.35 1;0.65 0 0.35 1;0.65 0 0.35 1;0.65 0 0.35 1" dur="24s" begin="-18s" repeatCount="indefinite" />
          </path>
          <path class="link" d="M252.98 131.94 Q265.88 107.20 267.19 79.32" opacity="0">
            <animate attributeName="opacity" values="0;0;1;1;0;0" keyTimes="0.0000;0.1208;0.1417;0.2375;0.2542;1.0000" calcMode="spline" keySplines="0.65 0 0.35 1;0.65 0 0.35 1;0.65 0 0.35 1;0.65 0 0.35 1;0.65 0 0.35 1" dur="24s" begin="-18s" repeatCount="indefinite" />
          </path>
          <path class="link" d="M267.19 79.32 Q257.99 99.49 260.65 121.49" opacity="0">
            <animate attributeName="opacity" values="0;0;1;1;0;0" keyTimes="0.0000;0.1208;0.1417;0.2583;0.2750;1.0000" calcMode="spline" keySplines="0.65 0 0.35 1;0.65 0 0.35 1;0.65 0 0.35 1;0.65 0 0.35 1;0.65 0 0.35 1" dur="24s" begin="-15s" repeatCount="indefinite" />
          </path>
          <path class="link" d="M282.50 103.39 Q275.40 117.06 260.65 121.49" opacity="0">
            <animate attributeName="opacity" values="0;0;1;1;0;0" keyTimes="0.0000;0.1208;0.1417;0.3417;0.3583;1.0000" calcMode="spline" keySplines="0.65 0 0.35 1;0.65 0 0.35 1;0.65 0 0.35 1;0.65 0 0.35 1;0.65 0 0.35 1" dur="24s" begin="-15s" repeatCount="indefinite" />
          </path>
          <path class="link" d="M260.65 121.49 Q271.05 89.94 269.57 56.76" opacity="0">
            <animate attributeName="opacity" values="0;0;1;1;0;0" keyTimes="0.0000;0.1208;0.1417;0.4667;0.4833;1.0000" calcMode="spline" keySplines="0.65 0 0.35 1;0.65 0 0.35 1;0.65 0 0.35 1;0.65 0 0.35 1;0.65 0 0.35 1" dur="24s" begin="-12s" repeatCount="indefinite" />
          </path>
          <path class="link" d="M282.50 103.39 Q281.82 78.47 269.57 56.76" opacity="0">
            <animate attributeName="opacity" values="0;0;1;1;0;0" keyTimes="0.0000;0.1208;0.1417;0.2167;0.2333;1.0000" calcMode="spline" keySplines="0.65 0 0.35 1;0.65 0 0.35 1;0.65 0 0.35 1;0.65 0 0.35 1;0.65 0 0.35 1" dur="24s" begin="-12s" repeatCount="indefinite" />
          </path>
          <path class="link" d="M269.57 56.76 Q260.30 81.64 262.94 108.06" opacity="0">
            <animate attributeName="opacity" values="0;0;1;1;0;0" keyTimes="0.0000;0.1208;0.1417;0.3417;0.3583;1.0000" calcMode="spline" keySplines="0.65 0 0.35 1;0.65 0 0.35 1;0.65 0 0.35 1;0.65 0 0.35 1;0.65 0 0.35 1" dur="24s" begin="-9s" repeatCount="indefinite" />
          </path>
          <path class="link" d="M260.65 121.49 Q255.88 113.77 262.94 108.06" opacity="0">
            <animate attributeName="opacity" values="0;0;1;1;0;0" keyTimes="0.0000;0.1208;0.1417;0.3833;0.4000;1.0000" calcMode="spline" keySplines="0.65 0 0.35 1;0.65 0 0.35 1;0.65 0 0.35 1;0.65 0 0.35 1;0.65 0 0.35 1" dur="24s" begin="-9s" repeatCount="indefinite" />
          </path>
          <path class="link" d="M262.94 108.06 Q275.93 102.21 279.85 88.51" opacity="0">
            <animate attributeName="opacity" values="0;0;1;1;0;0" keyTimes="0.0000;0.1208;0.1417;0.4042;0.4208;1.0000" calcMode="spline" keySplines="0.65 0 0.35 1;0.65 0 0.35 1;0.65 0 0.35 1;0.65 0 0.35 1;0.65 0 0.35 1" dur="24s" begin="-6s" repeatCount="indefinite" />
          </path>
          <path class="link" d="M269.57 56.76 Q280.42 70.79 279.85 88.51" opacity="0">
            <animate attributeName="opacity" values="0;0;1;1;0;0" keyTimes="0.0000;0.1208;0.1417;0.2167;0.2333;1.0000" calcMode="spline" keySplines="0.65 0 0.35 1;0.65 0 0.35 1;0.65 0 0.35 1;0.65 0 0.35 1;0.65 0 0.35 1" dur="24s" begin="-6s" repeatCount="indefinite" />
          </path>
          <path class="link" d="M260.65 121.49 Q275.43 108.02 279.85 88.51" opacity="0">
            <animate attributeName="opacity" values="0;0;1;1;0;0" keyTimes="0.0000;0.1208;0.1417;0.2583;0.2750;1.0000" calcMode="spline" keySplines="0.65 0 0.35 1;0.65 0 0.35 1;0.65 0 0.35 1;0.65 0 0.35 1;0.65 0 0.35 1" dur="24s" begin="-6s" repeatCount="indefinite" />
          </path>
          <path class="link" d="M279.85 88.51 Q261.31 107.07 252.98 131.94" opacity="0">
            <animate attributeName="opacity" values="0;0;1;1;0;0" keyTimes="0.0000;0.1208;0.1417;0.2792;0.2958;1.0000" calcMode="spline" keySplines="0.65 0 0.35 1;0.65 0 0.35 1;0.65 0 0.35 1;0.65 0 0.35 1;0.65 0 0.35 1" dur="24s" begin="-3s" repeatCount="indefinite" />
          </path>
          <path class="link" d="M262.94 108.06 Q263.50 122.31 252.98 131.94" opacity="0">
            <animate attributeName="opacity" values="0;0;1;1;0;0" keyTimes="0.0000;0.1208;0.1417;0.3000;0.3167;1.0000" calcMode="spline" keySplines="0.65 0 0.35 1;0.65 0 0.35 1;0.65 0 0.35 1;0.65 0 0.35 1;0.65 0 0.35 1" dur="24s" begin="-3s" repeatCount="indefinite" />
          </path>
            <line class="spoke" x1="240" y1="92" x2="253.00" y2="56.29" opacity="0">
            <animate attributeName="opacity" values="0;0;1;1;0;0" keyTimes="0.0000;0.1021;0.1083;0.4333;0.4667;1.0000" calcMode="spline" keySplines="0.65 0 0.35 1;0.65 0 0.35 1;0.65 0 0.35 1;0.65 0 0.35 1;0.65 0 0.35 1" dur="24s" begin="-24s" repeatCount="indefinite" />
          </line>
          <circle class="sat" cx="253.00" cy="56.29" r="0" opacity="0">
            <animate attributeName="r" values="0;0;2.2;6.25;5;6.00;7.25;0;0" keyTimes="0.0000;0.1079;0.1083;0.1250;0.1375;0.4417;0.5250;0.5254;1.0000" calcMode="spline" keySplines="0.65 0 0.35 1;0.65 0 0.35 1;0.65 0 0.35 1;0.65 0 0.35 1;0.65 0 0.35 1;0.65 0 0.35 1;0.65 0 0.35 1;0.65 0 0.35 1" dur="24s" begin="-24s" repeatCount="indefinite" />
            <animate attributeName="opacity" values="0;0;1;1;0;0" keyTimes="0.0000;0.1079;0.1083;0.4417;0.5250;1.0000" calcMode="spline" keySplines="0.65 0 0.35 1;0.65 0 0.35 1;0.65 0 0.35 1;0.65 0 0.35 1;0.65 0 0.35 1" dur="24s" begin="-24s" repeatCount="indefinite" />
            <animateTransform attributeName="transform" type="translate" values="0 0;0 0;5.47 -23.04;0 0;0 0" keyTimes="0.0000;0.4417;0.5250;0.5254;1.0000" calcMode="spline" keySplines="0.65 0 0.35 1;0.65 0 0.35 1;0.65 0 0.35 1;0.65 0 0.35 1" dur="24s" begin="-24s" repeatCount="indefinite" />
          </circle>
          <line class="spoke" x1="240" y1="92" x2="282.50" y2="103.39" opacity="0">
            <animate attributeName="opacity" values="0;0;1;1;0;0" keyTimes="0.0000;0.1021;0.1083;0.6000;0.6333;1.0000" calcMode="spline" keySplines="0.65 0 0.35 1;0.65 0 0.35 1;0.65 0 0.35 1;0.65 0 0.35 1;0.65 0 0.35 1" dur="24s" begin="-21s" repeatCount="indefinite" />
          </line>
          <circle class="sat" cx="282.50" cy="103.39" r="0" opacity="0">
            <animate attributeName="r" values="0;0;2.2;5.00;4;4.80;5.80;0;0" keyTimes="0.0000;0.1079;0.1083;0.1250;0.1375;0.6083;0.6917;0.6921;1.0000" calcMode="spline" keySplines="0.65 0 0.35 1;0.65 0 0.35 1;0.65 0 0.35 1;0.65 0 0.35 1;0.65 0 0.35 1;0.65 0 0.35 1;0.65 0 0.35 1;0.65 0 0.35 1" dur="24s" begin="-21s" repeatCount="indefinite" />
            <animate attributeName="opacity" values="0;0;1;1;0;0" keyTimes="0.0000;0.1079;0.1083;0.6083;0.6917;1.0000" calcMode="spline" keySplines="0.65 0 0.35 1;0.65 0 0.35 1;0.65 0 0.35 1;0.65 0 0.35 1;0.65 0 0.35 1" dur="24s" begin="-21s" repeatCount="indefinite" />
            <animateTransform attributeName="transform" type="translate" values="0 0;0 0;15.45 -3.86;0 0;0 0" keyTimes="0.0000;0.6083;0.6917;0.6921;1.0000" calcMode="spline" keySplines="0.65 0 0.35 1;0.65 0 0.35 1;0.65 0 0.35 1;0.65 0 0.35 1" dur="24s" begin="-21s" repeatCount="indefinite" />
          </circle>
          <line class="spoke" x1="240" y1="92" x2="267.19" y2="79.32" opacity="0">
            <animate attributeName="opacity" values="0;0;1;1;0;0" keyTimes="0.0000;0.1021;0.1083;0.3917;0.4250;1.0000" calcMode="spline" keySplines="0.65 0 0.35 1;0.65 0 0.35 1;0.65 0 0.35 1;0.65 0 0.35 1;0.65 0 0.35 1" dur="24s" begin="-18s" repeatCount="indefinite" />
          </line>
          <circle class="sat" cx="267.19" cy="79.32" r="0" opacity="0">
            <animate attributeName="r" values="0;0;2.2;7.50;6;7.20;8.70;0;0" keyTimes="0.0000;0.1079;0.1083;0.1250;0.1375;0.4000;0.4833;0.4837;1.0000" calcMode="spline" keySplines="0.65 0 0.35 1;0.65 0 0.35 1;0.65 0 0.35 1;0.65 0 0.35 1;0.65 0 0.35 1;0.65 0 0.35 1;0.65 0 0.35 1;0.65 0 0.35 1" dur="24s" begin="-18s" repeatCount="indefinite" />
            <animate attributeName="opacity" values="0;0;1;1;0;0" keyTimes="0.0000;0.1079;0.1083;0.4000;0.4833;1.0000" calcMode="spline" keySplines="0.65 0 0.35 1;0.65 0 0.35 1;0.65 0 0.35 1;0.65 0 0.35 1;0.65 0 0.35 1" dur="24s" begin="-18s" repeatCount="indefinite" />
            <animateTransform attributeName="transform" type="translate" values="0 0;0 0;14.50 -14.76;0 0;0 0" keyTimes="0.0000;0.4000;0.4833;0.4837;1.0000" calcMode="spline" keySplines="0.65 0 0.35 1;0.65 0 0.35 1;0.65 0 0.35 1;0.65 0 0.35 1" dur="24s" begin="-18s" repeatCount="indefinite" />
          </circle>
          <line class="spoke" x1="240" y1="92" x2="260.65" y2="121.49" opacity="0">
            <animate attributeName="opacity" values="0;0;1;1;0;0" keyTimes="0.0000;0.1021;0.1083;0.6417;0.6750;1.0000" calcMode="spline" keySplines="0.65 0 0.35 1;0.65 0 0.35 1;0.65 0 0.35 1;0.65 0 0.35 1;0.65 0 0.35 1" dur="24s" begin="-15s" repeatCount="indefinite" />
          </line>
          <circle class="sat" cx="260.65" cy="121.49" r="0" opacity="0">
            <animate attributeName="r" values="0;0;2.2;5.63;4.5;5.40;6.52;0;0" keyTimes="0.0000;0.1079;0.1083;0.1250;0.1375;0.6500;0.7333;0.7338;1.0000" calcMode="spline" keySplines="0.65 0 0.35 1;0.65 0 0.35 1;0.65 0 0.35 1;0.65 0 0.35 1;0.65 0 0.35 1;0.65 0 0.35 1;0.65 0 0.35 1;0.65 0 0.35 1" dur="24s" begin="-15s" repeatCount="indefinite" />
            <animate attributeName="opacity" values="0;0;1;1;0;0" keyTimes="0.0000;0.1079;0.1083;0.6500;0.7333;1.0000" calcMode="spline" keySplines="0.65 0 0.35 1;0.65 0 0.35 1;0.65 0 0.35 1;0.65 0 0.35 1;0.65 0 0.35 1" dur="24s" begin="-15s" repeatCount="indefinite" />
            <animateTransform attributeName="transform" type="translate" values="0 0;0 0;9.18 5.11;0 0;0 0" keyTimes="0.0000;0.6500;0.7333;0.7338;1.0000" calcMode="spline" keySplines="0.65 0 0.35 1;0.65 0 0.35 1;0.65 0 0.35 1;0.65 0 0.35 1" dur="24s" begin="-15s" repeatCount="indefinite" />
          </circle>
          <line class="spoke" x1="240" y1="92" x2="269.57" y2="56.76" opacity="0">
            <animate attributeName="opacity" values="0;0;1;1;0;0" keyTimes="0.0000;0.1021;0.1083;0.4750;0.5083;1.0000" calcMode="spline" keySplines="0.65 0 0.35 1;0.65 0 0.35 1;0.65 0 0.35 1;0.65 0 0.35 1;0.65 0 0.35 1" dur="24s" begin="-12s" repeatCount="indefinite" />
          </line>
          <circle class="sat" cx="269.57" cy="56.76" r="0" opacity="0">
            <animate attributeName="r" values="0;0;2.2;4.38;3.5;4.20;5.08;0;0" keyTimes="0.0000;0.1079;0.1083;0.1250;0.1375;0.4833;0.5667;0.5671;1.0000" calcMode="spline" keySplines="0.65 0 0.35 1;0.65 0 0.35 1;0.65 0 0.35 1;0.65 0 0.35 1;0.65 0 0.35 1;0.65 0 0.35 1;0.65 0 0.35 1;0.65 0 0.35 1" dur="24s" begin="-12s" repeatCount="indefinite" />
            <animate attributeName="opacity" values="0;0;1;1;0;0" keyTimes="0.0000;0.1079;0.1083;0.4833;0.5667;1.0000" calcMode="spline" keySplines="0.65 0 0.35 1;0.65 0 0.35 1;0.65 0 0.35 1;0.65 0 0.35 1;0.65 0 0.35 1" dur="24s" begin="-12s" repeatCount="indefinite" />
            <animateTransform attributeName="transform" type="translate" values="0 0;0 0;10.28 -20.26;0 0;0 0" keyTimes="0.0000;0.4833;0.5667;0.5671;1.0000" calcMode="spline" keySplines="0.65 0 0.35 1;0.65 0 0.35 1;0.65 0 0.35 1;0.65 0 0.35 1" dur="24s" begin="-12s" repeatCount="indefinite" />
          </circle>
          <line class="spoke" x1="240" y1="92" x2="262.94" y2="108.06" opacity="0">
            <animate attributeName="opacity" values="0;0;1;1;0;0" keyTimes="0.0000;0.1021;0.1083;0.5583;0.5917;1.0000" calcMode="spline" keySplines="0.65 0 0.35 1;0.65 0 0.35 1;0.65 0 0.35 1;0.65 0 0.35 1;0.65 0 0.35 1" dur="24s" begin="-9s" repeatCount="indefinite" />
          </line>
          <circle class="sat" cx="262.94" cy="108.06" r="0" opacity="0">
            <animate attributeName="r" values="0;0;2.2;6.88;5.5;6.60;7.97;0;0" keyTimes="0.0000;0.1079;0.1083;0.1250;0.1375;0.5667;0.6500;0.6504;1.0000" calcMode="spline" keySplines="0.65 0 0.35 1;0.65 0 0.35 1;0.65 0 0.35 1;0.65 0 0.35 1;0.65 0 0.35 1;0.65 0 0.35 1;0.65 0 0.35 1;0.65 0 0.35 1" dur="24s" begin="-9s" repeatCount="indefinite" />
            <animate attributeName="opacity" values="0;0;1;1;0;0" keyTimes="0.0000;0.1079;0.1083;0.5667;0.6500;1.0000" calcMode="spline" keySplines="0.65 0 0.35 1;0.65 0 0.35 1;0.65 0 0.35 1;0.65 0 0.35 1;0.65 0 0.35 1" dur="24s" begin="-9s" repeatCount="indefinite" />
            <animateTransform attributeName="transform" type="translate" values="0 0;0 0;13.11 1.18;0 0;0 0" keyTimes="0.0000;0.5667;0.6500;0.6504;1.0000" calcMode="spline" keySplines="0.65 0 0.35 1;0.65 0 0.35 1;0.65 0 0.35 1;0.65 0 0.35 1" dur="24s" begin="-9s" repeatCount="indefinite" />
          </circle>
          <line class="spoke" x1="240" y1="92" x2="279.85" y2="88.51" opacity="0">
            <animate attributeName="opacity" values="0;0;1;1;0;0" keyTimes="0.0000;0.1021;0.1083;0.4125;0.4458;1.0000" calcMode="spline" keySplines="0.65 0 0.35 1;0.65 0 0.35 1;0.65 0 0.35 1;0.65 0 0.35 1;0.65 0 0.35 1" dur="24s" begin="-6s" repeatCount="indefinite" />
          </line>
          <circle class="sat" cx="279.85" cy="88.51" r="0" opacity="0">
            <animate attributeName="r" values="0;0;2.2;5.00;4;4.80;5.80;0;0" keyTimes="0.0000;0.1079;0.1083;0.1250;0.1375;0.4208;0.5042;0.5046;1.0000" calcMode="spline" keySplines="0.65 0 0.35 1;0.65 0 0.35 1;0.65 0 0.35 1;0.65 0 0.35 1;0.65 0 0.35 1;0.65 0 0.35 1;0.65 0 0.35 1;0.65 0 0.35 1" dur="24s" begin="-6s" repeatCount="indefinite" />
            <animate attributeName="opacity" values="0;0;1;1;0;0" keyTimes="0.0000;0.1079;0.1083;0.4208;0.5042;1.0000" calcMode="spline" keySplines="0.65 0 0.35 1;0.65 0 0.35 1;0.65 0 0.35 1;0.65 0 0.35 1;0.65 0 0.35 1" dur="24s" begin="-6s" repeatCount="indefinite" />
            <animateTransform attributeName="transform" type="translate" values="0 0;0 0;15.94 -9.39;0 0;0 0" keyTimes="0.0000;0.4208;0.5042;0.5046;1.0000" calcMode="spline" keySplines="0.65 0 0.35 1;0.65 0 0.35 1;0.65 0 0.35 1;0.65 0 0.35 1" dur="24s" begin="-6s" repeatCount="indefinite" />
          </circle>
          <line class="spoke" x1="240" y1="92" x2="252.98" y2="131.94" opacity="0">
            <animate attributeName="opacity" values="0;0;1;1;0;0" keyTimes="0.0000;0.1021;0.1083;0.6208;0.6542;1.0000" calcMode="spline" keySplines="0.65 0 0.35 1;0.65 0 0.35 1;0.65 0 0.35 1;0.65 0 0.35 1;0.65 0 0.35 1" dur="24s" begin="-3s" repeatCount="indefinite" />
          </line>
          <circle class="sat" cx="252.98" cy="131.94" r="0" opacity="0">
            <animate attributeName="r" values="0;0;2.2;6.25;5;6.00;7.25;0;0" keyTimes="0.0000;0.1079;0.1083;0.1250;0.1375;0.6292;0.7125;0.7129;1.0000" calcMode="spline" keySplines="0.65 0 0.35 1;0.65 0 0.35 1;0.65 0 0.35 1;0.65 0 0.35 1;0.65 0 0.35 1;0.65 0 0.35 1;0.65 0 0.35 1;0.65 0 0.35 1" dur="24s" begin="-3s" repeatCount="indefinite" />
            <animate attributeName="opacity" values="0;0;1;1;0;0" keyTimes="0.0000;0.1079;0.1083;0.6292;0.7125;1.0000" calcMode="spline" keySplines="0.65 0 0.35 1;0.65 0 0.35 1;0.65 0 0.35 1;0.65 0 0.35 1;0.65 0 0.35 1" dur="24s" begin="-3s" repeatCount="indefinite" />
            <animateTransform attributeName="transform" type="translate" values="0 0;0 0;4.94 7.22;0 0;0 0" keyTimes="0.0000;0.6292;0.7125;0.7129;1.0000" calcMode="spline" keySplines="0.65 0 0.35 1;0.65 0 0.35 1;0.65 0 0.35 1;0.65 0 0.35 1" dur="24s" begin="-3s" repeatCount="indefinite" />
          </circle>
            <circle class="hub" cx="240" cy="92" r="11">
              <animate attributeName="r" values="11;11;13;11;11;13;11;11;13;11;11;13;11;11;13;11;11;13;11;11;13;11;11;13;11;11" keyTimes="0.0000;0.0958;0.1021;0.1208;0.2208;0.2271;0.2458;0.3458;0.3521;0.3708;0.4708;0.4771;0.4958;0.5958;0.6021;0.6208;0.7208;0.7271;0.7458;0.8458;0.8521;0.8708;0.9708;0.9771;0.9958;1.0000" calcMode="spline" keySplines="0.65 0 0.35 1;0.65 0 0.35 1;0.65 0 0.35 1;0.65 0 0.35 1;0.65 0 0.35 1;0.65 0 0.35 1;0.65 0 0.35 1;0.65 0 0.35 1;0.65 0 0.35 1;0.65 0 0.35 1;0.65 0 0.35 1;0.65 0 0.35 1;0.65 0 0.35 1;0.65 0 0.35 1;0.65 0 0.35 1;0.65 0 0.35 1;0.65 0 0.35 1;0.65 0 0.35 1;0.65 0 0.35 1;0.65 0 0.35 1;0.65 0 0.35 1;0.65 0 0.35 1;0.65 0 0.35 1;0.65 0 0.35 1;0.65 0 0.35 1" dur="24s" begin="0s" repeatCount="indefinite" />
            </circle>
            <circle class="particle" r="2.2" opacity="0">
            <animateMotion path="M42 92 H126 A22 22 0 0 1 170 92 H240 L253.00 56.29" keyPoints="0.0000;0.3217;0.5864;0.8545;1.0000;1.0000" keyTimes="0.0000;0.0417;0.0750;0.0958;0.1083;1.0000" calcMode="spline" keySplines="0.65 0 0.35 1;0.65 0 0.35 1;0.65 0 0.35 1;0.65 0 0.35 1;0.65 0 0.35 1" dur="24s" begin="-24s" repeatCount="indefinite" />
            <animate attributeName="opacity" values="0;1;1;0;0" keyTimes="0.0000;0.0062;0.1063;0.1083;1.0000" calcMode="spline" keySplines="0.65 0 0.35 1;0.65 0 0.35 1;0.65 0 0.35 1;0.65 0 0.35 1" dur="24s" begin="-24s" repeatCount="indefinite" />
          </circle>
          <circle class="particle" r="2.2" opacity="0">
            <animateMotion path="M42 92 H126 A22 22 0 0 0 170 92 H240 L282.50 103.39" keyPoints="0.0000;0.3145;0.5732;0.8353;1.0000;1.0000" keyTimes="0.0000;0.0417;0.0750;0.0958;0.1083;1.0000" calcMode="spline" keySplines="0.65 0 0.35 1;0.65 0 0.35 1;0.65 0 0.35 1;0.65 0 0.35 1;0.65 0 0.35 1" dur="24s" begin="-21s" repeatCount="indefinite" />
            <animate attributeName="opacity" values="0;1;1;0;0" keyTimes="0.0000;0.0062;0.1063;0.1083;1.0000" calcMode="spline" keySplines="0.65 0 0.35 1;0.65 0 0.35 1;0.65 0 0.35 1;0.65 0 0.35 1" dur="24s" begin="-21s" repeatCount="indefinite" />
          </circle>
          <circle class="particle" r="2.2" opacity="0">
            <animateMotion path="M42 92 H126 A22 22 0 0 1 170 92 H240 L267.19 79.32" keyPoints="0.0000;0.3319;0.6049;0.8815;1.0000;1.0000" keyTimes="0.0000;0.0417;0.0750;0.0958;0.1083;1.0000" calcMode="spline" keySplines="0.65 0 0.35 1;0.65 0 0.35 1;0.65 0 0.35 1;0.65 0 0.35 1;0.65 0 0.35 1" dur="24s" begin="-18s" repeatCount="indefinite" />
            <animate attributeName="opacity" values="0;1;1;0;0" keyTimes="0.0000;0.0062;0.1063;0.1083;1.0000" calcMode="spline" keySplines="0.65 0 0.35 1;0.65 0 0.35 1;0.65 0 0.35 1;0.65 0 0.35 1" dur="24s" begin="-18s" repeatCount="indefinite" />
          </circle>
          <circle class="particle" r="2.2" opacity="0">
            <animateMotion path="M42 92 H126 A22 22 0 0 0 170 92 H240 L260.65 121.49" keyPoints="0.0000;0.3242;0.5909;0.8611;1.0000;1.0000" keyTimes="0.0000;0.0417;0.0750;0.0958;0.1083;1.0000" calcMode="spline" keySplines="0.65 0 0.35 1;0.65 0 0.35 1;0.65 0 0.35 1;0.65 0 0.35 1;0.65 0 0.35 1" dur="24s" begin="-15s" repeatCount="indefinite" />
            <animate attributeName="opacity" values="0;1;1;0;0" keyTimes="0.0000;0.0062;0.1063;0.1083;1.0000" calcMode="spline" keySplines="0.65 0 0.35 1;0.65 0 0.35 1;0.65 0 0.35 1;0.65 0 0.35 1" dur="24s" begin="-15s" repeatCount="indefinite" />
          </circle>
          <circle class="particle" r="2.2" opacity="0">
            <animateMotion path="M42 92 H126 A22 22 0 0 1 170 92 H240 L269.57 56.76" keyPoints="0.0000;0.3121;0.5690;0.8291;1.0000;1.0000" keyTimes="0.0000;0.0417;0.0750;0.0958;0.1083;1.0000" calcMode="spline" keySplines="0.65 0 0.35 1;0.65 0 0.35 1;0.65 0 0.35 1;0.65 0 0.35 1;0.65 0 0.35 1" dur="24s" begin="-12s" repeatCount="indefinite" />
            <animate attributeName="opacity" values="0;1;1;0;0" keyTimes="0.0000;0.0062;0.1063;0.1083;1.0000" calcMode="spline" keySplines="0.65 0 0.35 1;0.65 0 0.35 1;0.65 0 0.35 1;0.65 0 0.35 1" dur="24s" begin="-12s" repeatCount="indefinite" />
          </circle>
          <circle class="particle" r="2.2" opacity="0">
            <animateMotion path="M42 92 H126 A22 22 0 0 0 170 92 H240 L262.94 108.06" keyPoints="0.0000;0.3345;0.6097;0.8885;1.0000;1.0000" keyTimes="0.0000;0.0417;0.0750;0.0958;0.1083;1.0000" calcMode="spline" keySplines="0.65 0 0.35 1;0.65 0 0.35 1;0.65 0 0.35 1;0.65 0 0.35 1;0.65 0 0.35 1" dur="24s" begin="-9s" repeatCount="indefinite" />
            <animate attributeName="opacity" values="0;1;1;0;0" keyTimes="0.0000;0.0062;0.1063;0.1083;1.0000" calcMode="spline" keySplines="0.65 0 0.35 1;0.65 0 0.35 1;0.65 0 0.35 1;0.65 0 0.35 1" dur="24s" begin="-9s" repeatCount="indefinite" />
          </circle>
          <circle class="particle" r="2.2" opacity="0">
            <animateMotion path="M42 92 H126 A22 22 0 0 1 170 92 H240 L279.85 88.51" keyPoints="0.0000;0.3193;0.5819;0.8480;1.0000;1.0000" keyTimes="0.0000;0.0417;0.0750;0.0958;0.1083;1.0000" calcMode="spline" keySplines="0.65 0 0.35 1;0.65 0 0.35 1;0.65 0 0.35 1;0.65 0 0.35 1;0.65 0 0.35 1" dur="24s" begin="-6s" repeatCount="indefinite" />
            <animate attributeName="opacity" values="0;1;1;0;0" keyTimes="0.0000;0.0062;0.1063;0.1083;1.0000" calcMode="spline" keySplines="0.65 0 0.35 1;0.65 0 0.35 1;0.65 0 0.35 1;0.65 0 0.35 1" dur="24s" begin="-6s" repeatCount="indefinite" />
          </circle>
          <circle class="particle" r="2.2" opacity="0">
            <animateMotion path="M42 92 H126 A22 22 0 0 0 170 92 H240 L252.98 131.94" keyPoints="0.0000;0.3168;0.5775;0.8416;1.0000;1.0000" keyTimes="0.0000;0.0417;0.0750;0.0958;0.1083;1.0000" calcMode="spline" keySplines="0.65 0 0.35 1;0.65 0 0.35 1;0.65 0 0.35 1;0.65 0 0.35 1;0.65 0 0.35 1" dur="24s" begin="-3s" repeatCount="indefinite" />
            <animate attributeName="opacity" values="0;1;1;0;0" keyTimes="0.0000;0.0062;0.1063;0.1083;1.0000" calcMode="spline" keySplines="0.65 0 0.35 1;0.65 0 0.35 1;0.65 0 0.35 1;0.65 0 0.35 1" dur="24s" begin="-3s" repeatCount="indefinite" />
          </circle>
          </g>

          <text x="42" y="160" text-anchor="middle">Design</text>
          <text x="148" y="160" text-anchor="middle">UI</text>
          <text x="252" y="160" text-anchor="middle">Systems</text>
        </svg>
      </div>
    </div>
  </foreignObject>
</svg>